<?xml version="1.0" encoding="UTF-8" standalone="no"?>
<!-- Created with Inkscape (http://www.inkscape.org/) -->

<svg
   xmlns:dc="http://purl.org/dc/elements/1.1/"
   xmlns:cc="http://creativecommons.org/ns#"
   xmlns:rdf="http://www.w3.org/1999/02/22-rdf-syntax-ns#"
   xmlns:svg="http://www.w3.org/2000/svg"
   xmlns="http://www.w3.org/2000/svg"
   xmlns:xlink="http://www.w3.org/1999/xlink"
   xmlns:sodipodi="http://sodipodi.sourceforge.net/DTD/sodipodi-0.dtd"
   xmlns:inkscape="http://www.inkscape.org/namespaces/inkscape"
   width="40"
   height="40"
   id="svg2"
   version="1.1"
   inkscape:version="0.48.2 r9819"
   sodipodi:docname="frog.svg">
  <defs
     id="defs4">
    <linearGradient
       id="linearGradient3862"
       inkscape:collect="always">
      <stop
         id="stop3864"
         offset="0"
         style="stop-color:#5ce000;stop-opacity:1" />
      <stop
         id="stop3866"
         offset="1"
         style="stop-color:#008c00;stop-opacity:1" />
    </linearGradient>
    <linearGradient
       inkscape:collect="always"
       xlink:href="#linearGradient3862"
       id="linearGradient3814"
       x1="14.75"
       y1="26.40625"
       x2="30.9375"
       y2="7.7812495"
       gradientUnits="userSpaceOnUse" />
    <linearGradient
       inkscape:collect="always"
       id="linearGradient3868-7">
      <stop
         style="stop-color:#ffffff;stop-opacity:0"
         offset="0"
         id="stop3870-4" />
      <stop
         style="stop-color:#ffffff;stop-opacity:1"
         offset="1"
         id="stop3872-0" />
    </linearGradient>
    <linearGradient
       inkscape:collect="always"
       xlink:href="#linearGradient3868-7"
       id="linearGradient3859"
       gradientUnits="userSpaceOnUse"
       x1="19.798225"
       y1="4.1004682"
       x2="19.735725"
       y2="30.465937"
       gradientTransform="matrix(0.96942511,0,0,0.96939471,0.6067205,0.61886707)" />
  </defs>
  <sodipodi:namedview
     id="base"
     pagecolor="#ffff99"
     bordercolor="#666666"
     borderopacity="1.0"
     inkscape:pageopacity="0"
     inkscape:pageshadow="2"
     inkscape:zoom="15.999999"
     inkscape:cx="2.3841562"
     inkscape:cy="23.339948"
     inkscape:document-units="px"
     inkscape:current-layer="layer1"
     showgrid="false"
     inkscape:showpageshadow="false"
     inkscape:window-width="1680"
     inkscape:window-height="998"
     inkscape:window-x="-8"
     inkscape:window-y="22"
     inkscape:window-maximized="1"
     showborder="true"
     borderlayer="false" />
  <metadata
     id="metadata7">
    <rdf:RDF>
      <cc:Work
         rdf:about="">
        <dc:format>image/svg+xml</dc:format>
        <dc:type
           rdf:resource="http://purl.org/dc/dcmitype/StillImage" />
        <dc:title />
      </cc:Work>
    </rdf:RDF>
  </metadata>
  <g
     inkscape:groupmode="layer"
     id="layer6"
     inkscape:label="frame"
     style="display:none">
    <rect
       style="color:#000000;fill:#ffff99;fill-opacity:1;fill-rule:nonzero;stroke:none;stroke-width:2;marker:none;visibility:visible;display:inline;overflow:visible;enable-background:accumulate"
       id="rect3821"
       width="36"
       height="36"
       x="2"
       y="2"
       rx="0"
       ry="0" />
  </g>
  <g
     inkscape:groupmode="layer"
     id="layer1"
     inkscape:label="frog"
     style="display:inline">
    <path
       style="color:#000000;fill:url(#linearGradient3814);fill-opacity:1;fill-rule:nonzero;stroke:#000000;stroke-width:2.99999976;stroke-linecap:round;stroke-linejoin:round;stroke-miterlimit:4;stroke-opacity:1;stroke-dasharray:none;marker:none;visibility:visible;display:inline;overflow:visible;enable-background:accumulate"
       d="M 12,3.5 C 8.9624339,3.5 6.5,5.9624339 6.5,9 6.5,9.8875735 6.7203482,10.726471 7.09375,11.46875 5.0069156,13.397552 3.6875,16.369268 3.6875,19.6875 l 0,6.34375 c 0,5.837859 4.1058533,10.53125 9.21875,10.53125 l 14.1875,0 c 5.112897,0 9.21875,-4.693391 9.21875,-10.53125 l 0,-6.34375 c 0,-3.318232 -1.319416,-6.289948 -3.40625,-8.21875 C 33.279652,10.726471 33.5,9.8875735 33.5,9 33.5,5.9624339 31.037566,3.5 28,3.5 c -3.037566,0 -5.5,2.4624339 -5.5,5.5 0,0.052573 -0.0015,0.1040311 0,0.15625 l -5,0 C 17.501465,9.1040311 17.5,9.0525733 17.5,9 17.5,5.9624339 15.037566,3.5 12,3.5 z"
       id="rect3002"
       inkscape:connector-curvature="0"
       sodipodi:nodetypes="sscsssssscsssccss" />
    <path
       sodipodi:type="arc"
       style="color:#000000;fill:none;stroke:#000000;stroke-width:3;stroke-linecap:round;stroke-linejoin:round;stroke-miterlimit:4;stroke-opacity:1;stroke-dasharray:none;stroke-dashoffset:0;marker:none;visibility:visible;display:inline;overflow:visible;enable-background:accumulate"
       id="path3802"
       sodipodi:cx="20.461903"
       sodipodi:cy="26.609165"
       sodipodi:rx="10.120466"
       sodipodi:ry="4.7287769"
       d="m 30.582369,26.609165 a 10.120466,4.7287769 0 0 1 -20.240365,0.0501"
       sodipodi:start="0"
       sodipodi:end="3.1309981"
       sodipodi:open="true"
       transform="translate(-0.46218661,-0.9375)" />
    <path
       sodipodi:type="arc"
       style="color:#000000;fill:#00c000;fill-opacity:1;fill-rule:nonzero;stroke:#000000;stroke-width:3;stroke-linecap:round;stroke-linejoin:round;stroke-miterlimit:4;stroke-opacity:1;stroke-dasharray:none;stroke-dashoffset:0;marker:none;visibility:visible;display:inline;overflow:visible;enable-background:accumulate"
       id="path3804"
       sodipodi:cx="11.68936"
       sodipodi:cy="8.6442318"
       sodipodi:rx="0.7733981"
       sodipodi:ry="0.64081556"
       d="m 12.462758,8.6442318 a 0.7733981,0.64081556 0 0 1 -1.546753,0.00679"
       sodipodi:start="0"
       sodipodi:end="3.1309981"
       sodipodi:open="true"
       transform="translate(0.04419418,-0.26516508)" />
    <path
       transform="translate(16.307651,-0.26516508)"
       sodipodi:open="true"
       sodipodi:end="3.1309981"
       sodipodi:start="0"
       d="m 12.462758,8.6442318 a 0.7733981,0.64081556 0 0 1 -1.546753,0.00679"
       sodipodi:ry="0.64081556"
       sodipodi:rx="0.7733981"
       sodipodi:cy="8.6442318"
       sodipodi:cx="11.68936"
       id="path3806"
       style="color:#000000;fill:#00c000;fill-opacity:1;fill-rule:nonzero;stroke:#000000;stroke-width:3;stroke-linecap:round;stroke-linejoin:round;stroke-miterlimit:4;stroke-opacity:1;stroke-dasharray:none;stroke-dashoffset:0;marker:none;visibility:visible;display:inline;overflow:visible;enable-background:accumulate"
       sodipodi:type="arc" />
    <path
       style="color:#000000;fill:url(#linearGradient3859);fill-opacity:1.0;fill-rule:nonzero;stroke:none;stroke-width:1.99999975999999990;marker:none;visibility:visible;display:inline;overflow:visible;enable-background:accumulate"
       d="M 12,5.03125 C 9.7957657,5.03125 8.03125,6.7957657 8.03125,9 c 0,0.6323714 0.1642546,1.23807 0.4375,1.78125 A 1.5421045,1.5421045 0 0 1 8.125,12.59375 c -1.1323248,1.046576 -2.0170606,2.503224 -2.5,4.1875 3.9716486,1.16486 8.832662,1.96875 14.25,1.96875 5.513793,0 10.458726,-0.803693 14.46875,-2 -0.485187,-1.669048 -1.344445,-3.117086 -2.46875,-4.15625 a 1.5421045,1.5421045 0 0 1 -0.34375,-1.8125 C 31.804495,10.238071 31.96875,9.6323716 31.96875,9 31.96875,6.7957658 30.204234,5.03125 28,5.03125 c -2.204234,0 -3.96875,1.7645158 -3.96875,3.96875 0,0.081903 1.82e-4,0.1313356 0,0.125 A 1.5421045,1.5421045 0 0 1 22.5,10.6875 l -5,0 A 1.5421045,1.5421045 0 0 1 15.96875,9.125 c -1.4e-4,0.00497 0,-0.043781 0,-0.125 0,-2.2042342 -1.764516,-3.96875 -3.96875,-3.96875 z"
       id="path3874-9"
       inkscape:connector-curvature="0" />
  </g>
</svg>
