<?xml version="1.0" encoding="UTF-8" standalone="no"?>
<!-- Created with Inkscape (http://www.inkscape.org/) -->

<svg
   xmlns:dc="http://purl.org/dc/elements/1.1/"
   xmlns:cc="http://creativecommons.org/ns#"
   xmlns:rdf="http://www.w3.org/1999/02/22-rdf-syntax-ns#"
   xmlns:svg="http://www.w3.org/2000/svg"
   xmlns="http://www.w3.org/2000/svg"
   xmlns:xlink="http://www.w3.org/1999/xlink"
   xmlns:sodipodi="http://sodipodi.sourceforge.net/DTD/sodipodi-0.dtd"
   xmlns:inkscape="http://www.inkscape.org/namespaces/inkscape"
   width="40"
   height="40"
   id="svg2"
   version="1.1"
   inkscape:version="0.48.2 r9819"
   sodipodi:docname="giraffe.svg">
  <defs
     id="defs4">
    <linearGradient
       inkscape:collect="always"
       id="linearGradient3883">
      <stop
         style="stop-color:#fdca01;stop-opacity:1;"
         offset="0"
         id="stop3885" />
      <stop
         style="stop-color:#986601;stop-opacity:1"
         offset="1"
         id="stop3887" />
    </linearGradient>
    <linearGradient
       inkscape:collect="always"
       id="linearGradient3868-4">
      <stop
         style="stop-color:#ffffff;stop-opacity:0"
         offset="0"
         id="stop3870-0" />
      <stop
         style="stop-color:#ffffff;stop-opacity:1"
         offset="1"
         id="stop3872-9" />
    </linearGradient>
    <linearGradient
       inkscape:collect="always"
       xlink:href="#linearGradient3883"
       id="linearGradient3889"
       x1="13.47151"
       y1="30.5"
       x2="44.804379"
       y2="0.49999994"
       gradientUnits="userSpaceOnUse" />
    <linearGradient
       inkscape:collect="always"
       xlink:href="#linearGradient3868-4"
       id="linearGradient3932"
       gradientUnits="userSpaceOnUse"
       gradientTransform="matrix(0.96942511,0,0,0.96939471,0.6067205,0.61886707)"
       x1="19.798225"
       y1="4.1004682"
       x2="19.735725"
       y2="30.465937" />
  </defs>
  <sodipodi:namedview
     id="base"
     pagecolor="#ffff99"
     bordercolor="#666666"
     borderopacity="1.0"
     inkscape:pageopacity="0"
     inkscape:pageshadow="2"
     inkscape:zoom="2"
     inkscape:cx="123.20798"
     inkscape:cy="-47.998134"
     inkscape:document-units="px"
     inkscape:current-layer="layer4"
     showgrid="false"
     inkscape:showpageshadow="false"
     inkscape:window-width="1680"
     inkscape:window-height="998"
     inkscape:window-x="-8"
     inkscape:window-y="22"
     inkscape:window-maximized="1"
     showborder="true"
     borderlayer="false"
     showguides="true"
     inkscape:guide-bbox="true" />
  <metadata
     id="metadata7">
    <rdf:RDF>
      <cc:Work
         rdf:about="">
        <dc:format>image/svg+xml</dc:format>
        <dc:type
           rdf:resource="http://purl.org/dc/dcmitype/StillImage" />
        <dc:title />
      </cc:Work>
    </rdf:RDF>
  </metadata>
  <g
     inkscape:groupmode="layer"
     id="layer6"
     inkscape:label="frame"
     style="display:none">
    <rect
       style="color:#000000;fill:#ffff99;fill-opacity:1;fill-rule:nonzero;stroke:none;stroke-width:2;marker:none;visibility:visible;display:inline;overflow:visible;enable-background:accumulate"
       id="rect3821"
       width="36"
       height="36"
       x="2"
       y="2"
       rx="0"
       ry="0" />
  </g>
  <g
     inkscape:groupmode="layer"
     id="layer4"
     inkscape:label="giraffe"
     style="display:inline">
    <path
       style="fill:url(#linearGradient3889);stroke:#000000;stroke-width:3;stroke-linecap:round;stroke-linejoin:round;stroke-miterlimit:4;stroke-opacity:1;stroke-dasharray:none;fill-opacity:1"
       d="m 2.4090097,9.2500001 35.2703693,0 C 37.679379,15.086309 34,16.239 34,16.239 l -1,20.136 -26,0 -1,-20.136 c 0,0 -3.5909903,-1.232889 -3.5909903,-6.9889999 z"
       id="path3805"
       inkscape:connector-curvature="0"
       sodipodi:nodetypes="ccccccc" />
    <path
       sodipodi:type="arc"
       style="color:#000000;fill:#fdca01;fill-opacity:1;fill-rule:nonzero;stroke:#000000;stroke-width:3;stroke-linecap:round;stroke-linejoin:round;stroke-miterlimit:4;stroke-opacity:1;stroke-dasharray:none;stroke-dashoffset:0;marker:none;visibility:visible;display:inline;overflow:visible;enable-background:accumulate"
       id="path3807"
       sodipodi:cx="9.75"
       sodipodi:cy="4.4374986"
       sodipodi:rx="3.1875002"
       sodipodi:ry="3.1875002"
       d="m 12.9375,4.4374986 a 3.1875002,3.1875002 0 1 1 -6.3750002,0 3.1875002,3.1875002 0 1 1 6.3750002,0 z"
       transform="translate(0.43750024,1.5530779)" />
    <path
       transform="translate(19.971325,1.5530779)"
       d="m 12.9375,4.4374986 a 3.1875002,3.1875002 0 1 1 -6.3750002,0 3.1875002,3.1875002 0 1 1 6.3750002,0 z"
       sodipodi:ry="3.1875002"
       sodipodi:rx="3.1875002"
       sodipodi:cy="4.4374986"
       sodipodi:cx="9.75"
       id="path3809"
       style="color:#000000;fill:#fdca01;fill-opacity:1;fill-rule:nonzero;stroke:#000000;stroke-width:3;stroke-linecap:round;stroke-linejoin:round;stroke-miterlimit:4;stroke-opacity:1;stroke-dasharray:none;stroke-dashoffset:0;marker:none;visibility:visible;display:inline;overflow:visible;enable-background:accumulate"
       sodipodi:type="arc" />
    <path
       style="fill:none;stroke:#000000;stroke-width:3;stroke-linecap:round;stroke-linejoin:round;stroke-miterlimit:4;stroke-opacity:1;stroke-dasharray:none"
       d="m 14.5,16.437204 0,4.869796"
       id="path3813"
       inkscape:connector-curvature="0" />
    <path
       style="opacity:1;fill:#986601;fill-opacity:1;stroke:none"
       d="M 23.8125 10.75 C 23.800063 10.957705 23.78125 11.16408 23.78125 11.375 C 23.78125 16.468346 27.471979 20.635377 32.25 21.3125 L 32.5 16.1875 A 1.5133985 1.5133985 0 0 1 33.53125 14.8125 C 33.53125 14.8125 34.03737 14.691747 34.71875 13.9375 C 35.231494 13.369922 35.689703 12.262581 35.9375 10.75 L 23.8125 10.75 z "
       id="path3926" />
    <path
       inkscape:connector-curvature="0"
       id="path3815"
       d="m 26,16.4375 0,4.869796"
       style="fill:none;stroke:#000000;stroke-width:3;stroke-linecap:round;stroke-linejoin:round;stroke-miterlimit:4;stroke-opacity:1;stroke-dasharray:none" />
    <path
       style="color:#000000;fill:url(#linearGradient3932);fill-opacity:1;fill-rule:nonzero;stroke:none;stroke-width:1.99999975999999990;marker:none;visibility:visible;display:inline;overflow:visible;enable-background:accumulate"
       d="M 4.125 10.75 C 4.3685396 12.243759 4.8416246 13.330324 5.34375 13.90625 C 6.0128962 14.673745 6.5 14.8125 6.5 14.8125 A 1.5133985 1.5133985 0 0 1 7.5 16.1875 L 7.5625 17.3125 C 11.141769 18.18608 15.308898 18.75 19.875 18.75 C 23.765624 18.75 28.521751 18.230897 32.4375 17.5 L 32.5 16.1875 A 1.5133985 1.5133985 0 0 1 33.53125 14.8125 C 33.53125 14.8125 34.03737 14.691747 34.71875 13.9375 C 35.231494 13.369922 35.689703 12.262581 35.9375 10.75 L 4.125 10.75 z "
       id="path3874-4" />
    <path
       style="color:#000000;fill:#986601;fill-opacity:1;fill-rule:nonzero;stroke:none;stroke-width:1;marker:none;visibility:visible;display:inline;overflow:visible;enable-background:accumulate"
       d="M 9.71875 25.4375 C 9.1153816 25.4375 8.5197654 25.52324 7.96875 25.6875 L 8.4375 34.875 L 15 34.875 C 15.548336 33.940359 15.875 32.854361 15.875 31.6875 C 15.875 28.23572 13.118753 25.4375 9.71875 25.4375 z "
       id="path3935" />
  </g>
</svg>
