<?xml version="1.0" encoding="UTF-8" standalone="no"?>
<!-- Created with Inkscape (http://www.inkscape.org/) -->

<svg
   xmlns:dc="http://purl.org/dc/elements/1.1/"
   xmlns:cc="http://creativecommons.org/ns#"
   xmlns:rdf="http://www.w3.org/1999/02/22-rdf-syntax-ns#"
   xmlns:svg="http://www.w3.org/2000/svg"
   xmlns="http://www.w3.org/2000/svg"
   xmlns:xlink="http://www.w3.org/1999/xlink"
   xmlns:sodipodi="http://sodipodi.sourceforge.net/DTD/sodipodi-0.dtd"
   xmlns:inkscape="http://www.inkscape.org/namespaces/inkscape"
   width="40"
   height="40"
   id="svg2"
   version="1.1"
   inkscape:version="0.48.2 r9819"
   sodipodi:docname="lion.svg">
  <defs
     id="defs4">
    <linearGradient
       inkscape:collect="always"
       id="linearGradient3883">
      <stop
         style="stop-color:#fdca01;stop-opacity:1;"
         offset="0"
         id="stop3885" />
      <stop
         style="stop-color:#986601;stop-opacity:1"
         offset="1"
         id="stop3887" />
    </linearGradient>
    <linearGradient
       id="linearGradient3862"
       inkscape:collect="always">
      <stop
         id="stop3864"
         offset="0"
         style="stop-color:#5ce000;stop-opacity:1" />
      <stop
         id="stop3866"
         offset="1"
         style="stop-color:#008c00;stop-opacity:1" />
    </linearGradient>
    <linearGradient
       inkscape:collect="always"
       id="linearGradient3868">
      <stop
         style="stop-color:#ffffff;stop-opacity:0"
         offset="0"
         id="stop3870" />
      <stop
         style="stop-color:#ffffff;stop-opacity:1"
         offset="1"
         id="stop3872" />
    </linearGradient>
    <linearGradient
       id="linearGradient3848"
       inkscape:collect="always">
      <stop
         id="stop3850"
         offset="0"
         style="stop-color:#ffffff;stop-opacity:1;" />
      <stop
         id="stop3852"
         offset="1"
         style="stop-color:#c0c0c0;stop-opacity:1" />
    </linearGradient>
    <linearGradient
       inkscape:collect="always"
       xlink:href="#linearGradient3848"
       id="linearGradient3856"
       x1="11.639273"
       y1="30.738583"
       x2="24.235725"
       y2="15.926083"
       gradientUnits="userSpaceOnUse"
       gradientTransform="matrix(0.96942511,0,0,0.96939471,0.60672048,0.61886683)" />
    <linearGradient
       inkscape:collect="always"
       xlink:href="#linearGradient3868"
       id="linearGradient3876"
       gradientUnits="userSpaceOnUse"
       x1="19.798225"
       y1="4.1004682"
       x2="19.735725"
       y2="30.465937" />
    <linearGradient
       inkscape:collect="always"
       xlink:href="#linearGradient3862"
       id="linearGradient3814"
       x1="14.75"
       y1="26.40625"
       x2="30.9375"
       y2="7.7812495"
       gradientUnits="userSpaceOnUse" />
    <linearGradient
       inkscape:collect="always"
       id="linearGradient3868-7">
      <stop
         style="stop-color:#ffffff;stop-opacity:0"
         offset="0"
         id="stop3870-4" />
      <stop
         style="stop-color:#ffffff;stop-opacity:1"
         offset="1"
         id="stop3872-0" />
    </linearGradient>
    <linearGradient
       inkscape:collect="always"
       xlink:href="#linearGradient3868-7"
       id="linearGradient3859"
       gradientUnits="userSpaceOnUse"
       x1="19.798225"
       y1="4.1004682"
       x2="19.735725"
       y2="30.465937"
       gradientTransform="matrix(0.96942511,0,0,0.96939471,0.6067205,0.61886707)" />
    <linearGradient
       inkscape:collect="always"
       id="linearGradient3868-4">
      <stop
         style="stop-color:#ffffff;stop-opacity:0"
         offset="0"
         id="stop3870-0" />
      <stop
         style="stop-color:#ffffff;stop-opacity:1"
         offset="1"
         id="stop3872-9" />
    </linearGradient>
    <linearGradient
       inkscape:collect="always"
       xlink:href="#linearGradient3883"
       id="linearGradient3889"
       x1="13.47151"
       y1="30.5"
       x2="44.804379"
       y2="0.49999994"
       gradientUnits="userSpaceOnUse" />
    <linearGradient
       inkscape:collect="always"
       xlink:href="#linearGradient3868-4"
       id="linearGradient3932"
       gradientUnits="userSpaceOnUse"
       gradientTransform="matrix(0.96942511,0,0,0.96939471,0.6067205,0.61886707)"
       x1="19.798225"
       y1="4.1004682"
       x2="19.735725"
       y2="30.465937" />
    <linearGradient
       inkscape:collect="always"
       id="linearGradient3868-0">
      <stop
         style="stop-color:#ffffff;stop-opacity:0"
         offset="0"
         id="stop3870-9" />
      <stop
         style="stop-color:#ffffff;stop-opacity:1"
         offset="1"
         id="stop3872-4" />
    </linearGradient>
    <linearGradient
       inkscape:collect="always"
       xlink:href="#linearGradient3868-0"
       id="linearGradient3933"
       gradientUnits="userSpaceOnUse"
       x1="19.798225"
       y1="4.1004682"
       x2="19.735725"
       y2="30.465937"
       gradientTransform="matrix(0.96942511,0,0,0.96939471,0.6067205,0.61886707)" />
    <linearGradient
       inkscape:collect="always"
       id="linearGradient3868-0-7">
      <stop
         style="stop-color:#ffffff;stop-opacity:0"
         offset="0"
         id="stop3870-9-4" />
      <stop
         style="stop-color:#ffffff;stop-opacity:1"
         offset="1"
         id="stop3872-4-0" />
    </linearGradient>
    <linearGradient
       y2="30.465937"
       x2="19.735725"
       y1="4.1004682"
       x1="19.798225"
       gradientTransform="matrix(0.96942511,0,0,0.96939471,0.6067205,0.6188671)"
       gradientUnits="userSpaceOnUse"
       id="linearGradient3885"
       xlink:href="#linearGradient3868-0-7"
       inkscape:collect="always" />
    <linearGradient
       inkscape:collect="always"
       id="linearGradient3868-9">
      <stop
         style="stop-color:#ffffff;stop-opacity:0"
         offset="0"
         id="stop3870-48" />
      <stop
         style="stop-color:#ffffff;stop-opacity:1"
         offset="1"
         id="stop3872-8" />
    </linearGradient>
    <linearGradient
       inkscape:collect="always"
       xlink:href="#linearGradient3868-9"
       id="linearGradient3920"
       gradientUnits="userSpaceOnUse"
       x1="19.798225"
       y1="4.1004682"
       x2="19.735725"
       y2="30.465937"
       gradientTransform="matrix(0.96942511,0,0,0.96939471,0.6067205,0.61886707)" />
  </defs>
  <sodipodi:namedview
     id="base"
     pagecolor="#ffff99"
     bordercolor="#666666"
     borderopacity="1.0"
     inkscape:pageopacity="0"
     inkscape:pageshadow="2"
     inkscape:zoom="4"
     inkscape:cx="18.883992"
     inkscape:cy="63.64993"
     inkscape:document-units="px"
     inkscape:current-layer="layer8"
     showgrid="true"
     inkscape:showpageshadow="false"
     inkscape:window-width="1680"
     inkscape:window-height="998"
     inkscape:window-x="-8"
     inkscape:window-y="22"
     inkscape:window-maximized="1"
     showborder="true"
     borderlayer="false"
     showguides="true"
     inkscape:guide-bbox="true">
    <inkscape:grid
       type="xygrid"
       id="grid3832"
       empspacing="5"
       visible="true"
       enabled="true"
       snapvisiblegridlinesonly="true" />
  </sodipodi:namedview>
  <metadata
     id="metadata7">
    <rdf:RDF>
      <cc:Work
         rdf:about="">
        <dc:format>image/svg+xml</dc:format>
        <dc:type
           rdf:resource="http://purl.org/dc/dcmitype/StillImage" />
        <dc:title />
      </cc:Work>
    </rdf:RDF>
  </metadata>
  <g
     inkscape:groupmode="layer"
     id="layer6"
     inkscape:label="frame"
     style="display:none">
    <rect
       style="color:#000000;fill:#ffff99;fill-opacity:1;fill-rule:nonzero;stroke:none;stroke-width:2;marker:none;visibility:visible;display:inline;overflow:visible;enable-background:accumulate"
       id="rect3821"
       width="36"
       height="36"
       x="2"
       y="2"
       rx="0"
       ry="0" />
  </g>
  <g
     inkscape:groupmode="layer"
     id="layer8"
     inkscape:label="lion">
    <path
       style="color:#000000;fill:#804d00;fill-opacity:1;fill-rule:nonzero;stroke:none;stroke-width:3;marker:none;visibility:visible;display:inline;overflow:visible;enable-background:accumulate"
       inkscape:transform-center-x="-0.13374293"
       inkscape:transform-center-y="-0.19154199"
       d="m 20.184704,2 c 0.397211,0.0062 1.92215,3.2549492 2.316149,3.3225055 0.393999,0.067554 3.17427,-2.4521255 3.55422,-2.3194759 0.379949,0.1326496 1.030194,3.6259157 1.388861,3.8131459 0.358667,0.1872303 3.595618,-1.2800887 3.922082,-1.0325597 0.326464,0.2475277 -0.06639,4.1742956 0.220176,4.4716642 0.286569,0.297367 3.506345,-0.2561241 3.738094,0.08819 0.23175,0.34431 -1.062784,3.974538 -0.885977,4.357764 0.176806,0.383227 3.59372,0.962077 3.718992,1.365365 0.125272,0.403288 -2.353498,3.206193 -2.292803,3.627025 0.06069,0.420832 3.275946,2.342329 3.271196,2.768535 -0.0048,0.426206 -3.217001,2.323071 -3.276159,2.741199 -0.05916,0.418128 2.416671,3.194018 2.295191,3.598184 -0.121479,0.404167 -3.541117,0.856469 -3.717618,1.236483 -0.176502,0.380014 1.126417,3.863477 0.888513,4.202382 -0.237904,0.338905 -3.452582,0.09824 -3.737871,0.396352 -0.285291,0.298104 0.105637,3.96988 -0.217824,4.2217 C 31.046468,39.11028 28.683788,37 27,37 L 13,37 C 11,37 9.0066283,38.853981 8.6816308,38.606676 8.3566332,38.359367 8.7455864,34.840443 8.4614552,34.540614 8.1773235,34.240785 4.7838431,34.579919 4.5517834,34.233383 4.3197238,33.88685 5.6192799,30.66134 5.4377604,30.281227 5.256241,29.901113 1.8459295,28.91241 1.7187685,28.510255 1.5916075,28.108101 4.0694388,25.302033 4.0115705,24.88323 3.9537022,24.464428 1.1135753,22.788513 1.1152183,22.365274 1.1168586,21.942035 3.9570271,20.2006 4.0165349,19.779103 4.0760425,19.357607 1.6022027,16.586278 1.721343,16.180919 1.8404832,15.775559 5.2588104,14.918308 5.4389616,14.538829 5.6191129,14.15935 4.3143328,10.680476 4.550448,10.336447 4.786563,9.9924183 8.1751481,10.458954 8.4598983,10.159138 8.7446485,9.8593234 8.3576696,6.1920797 8.6777213,5.9374386 8.9977735,5.6827975 12.242338,7.1963883 12.600183,7.0053388 12.958027,6.8142894 13.68371,3.2249147 14.06396,3.0905915 14.44421,2.9562682 17.226028,5.4836049 17.619624,5.4139675 18.01322,5.3443264 19.787493,1.9937747 20.184704,2 z"
       id="path3869"
       inkscape:connector-curvature="0"
       sodipodi:nodetypes="cssssssssccsssscsccssssssssssssssssc" />
    <rect
       style="color:#000000;fill:#ffc022;fill-opacity:1;fill-rule:nonzero;stroke:#000000;stroke-width:3;stroke-opacity:1;marker:none;visibility:visible;display:inline;overflow:visible;enable-background:accumulate"
       id="rect3866"
       width="26"
       height="27.857143"
       x="7"
       y="9.0714283"
       rx="10.214286"
       ry="10.214286" />
    <path
       style="fill:none;stroke:#000000;stroke-width:3;stroke-linecap:round;stroke-linejoin:round;stroke-miterlimit:4;stroke-opacity:1;stroke-dasharray:none"
       d="m 14,18 0,5"
       id="path3872"
       inkscape:connector-curvature="0" />
    <path
       inkscape:connector-curvature="0"
       id="path3875"
       d="m 26,18 0,5"
       style="fill:none;stroke:#000000;stroke-width:3;stroke-linecap:round;stroke-linejoin:round;stroke-miterlimit:4;stroke-opacity:1;stroke-dasharray:none" />
    <path
       sodipodi:type="arc"
       style="color:#000000;fill:#804d00;fill-opacity:1;fill-rule:nonzero;stroke:none;stroke-width:3;marker:none;visibility:visible;display:inline;overflow:visible;enable-background:accumulate"
       id="path3879"
       sodipodi:cx="20"
       sodipodi:cy="26"
       sodipodi:rx="2"
       sodipodi:ry="2"
       d="m 22,26 a 2,2 0 1 1 -4,0 2,2 0 1 1 4,0 z" />
    <path
       style="color:#000000;fill:url(#linearGradient3920);fill-opacity:1;fill-rule:nonzero;stroke:none;stroke-width:1.99999975999999990;marker:none;visibility:visible;display:inline;overflow:visible;enable-background:accumulate"
       d="M 17.21875 10.59375 C 12.9716 10.59375 9.5094275 13.567449 8.71875 17.5625 C 12.029796 18.280977 15.794466 18.75 19.875 18.75 C 24.062058 18.75 27.908142 18.248081 31.28125 17.5 C 30.467507 13.535674 27.006884 10.59375 22.78125 10.59375 L 17.21875 10.59375 z "
       id="path3874-2" />
    <path
       style="fill:none;stroke:#804d00;stroke-width:3;stroke-linecap:round;stroke-linejoin:round;stroke-miterlimit:4;stroke-opacity:1;stroke-dasharray:none"
       d="m 20,27 c 0,3 7,3 7,0"
       id="path3923"
       inkscape:connector-curvature="0"
       sodipodi:nodetypes="cc" />
    <path
       style="fill:none;stroke:#804d00;stroke-width:3;stroke-linecap:round;stroke-linejoin:round;stroke-miterlimit:4;stroke-opacity:1;stroke-dasharray:none"
       d="m 13,27 c 0,3 7,3 7,0"
       id="path3925"
       inkscape:connector-curvature="0"
       sodipodi:nodetypes="cc" />
  </g>
</svg>
